<svg width="24" height="21" viewBox="0 0 24 21" fill="none" xmlns="http://www.w3.org/2000/svg">
<path d="M23.9208 8.12546C23.9259 8.07043 23.9259 8.01504 23.9208 7.96002C23.9546 7.8859 23.9802 7.80822 23.9971 7.7284V7.56296C24.001 7.50052 24.001 7.4379 23.9971 7.37546C23.9971 7.37546 23.9971 7.37546 23.9971 7.30928C23.972 7.2591 23.9429 7.21114 23.9099 7.1659C23.8923 7.12326 23.8704 7.0826 23.8444 7.04458L18.3914 0.426947C18.3406 0.370706 18.2818 0.322388 18.2169 0.283565L18.0533 0.173271L17.8679 0.118124C17.7414 0.0461959 17.5987 0.0082266 17.4535 0.00783044H6.54753C6.47154 -0.00261015 6.3945 -0.00261015 6.31851 0.00783044L6.13311 0.0629773C6.07455 0.093224 6.01965 0.130236 5.96952 0.173271C5.90467 0.212094 5.84587 0.260412 5.79502 0.316653L0.342032 6.93428C0.316093 6.9723 0.294162 7.01297 0.276596 7.05561C0.243594 7.10084 0.214409 7.14881 0.189349 7.19899C0.189349 7.19899 0.189349 7.19899 0.189349 7.26516C0.184086 7.32755 0.184086 7.39028 0.189349 7.45266L0.00394693 7.7284C-0.00131564 7.79078 -0.00131564 7.85351 0.00394693 7.9159C-0.00117653 7.97092 -0.00117653 8.02631 0.00394693 8.08134V8.14752C0.0327621 8.20142 0.065574 8.25304 0.102101 8.30193C0.125038 8.34393 0.150535 8.38445 0.178443 8.42325L10.9099 20.324C10.9675 20.474 11.0568 20.6096 11.1717 20.721C11.3454 20.8773 11.5639 20.9734 11.7954 20.9952C12.0269 21.0171 12.2593 20.9635 12.4586 20.8423L12.5676 20.7651L12.6767 20.6879L12.753 20.5997L23.659 8.54457C23.6869 8.50577 23.7124 8.46525 23.7354 8.42325C23.7719 8.37436 23.8047 8.32274 23.8335 8.26884L23.9208 8.12546ZM7.06011 2.21371H8.72873L7.98712 6.62546H3.42842L7.06011 2.21371ZM16.9409 2.21371L20.5726 6.62546H16.0139L15.2723 2.21371H16.9409ZM9.81933 8.83134H14.1817L12.0005 16.0225L9.81933 8.83134ZM13.7564 6.62546H10.1574L10.9099 2.39018C10.915 2.33147 10.915 2.27242 10.9099 2.21371H13.0911C13.0861 2.27242 13.0861 2.33147 13.0911 2.39018L13.7564 6.62546ZM7.63813 8.83134V8.89751C7.63221 8.97092 7.63221 9.04469 7.63813 9.1181L9.53577 15.4931L3.5593 8.83134H7.63813ZM16.2975 9.15119C16.3034 9.07778 16.3034 9.00401 16.2975 8.9306V8.83134H20.3981L14.3889 15.5041L16.2975 9.15119Z" fill="#7E7E7E"/>
</svg>
