<svg width="23" height="23" viewBox="0 0 23 23" fill="none" xmlns="http://www.w3.org/2000/svg">
<circle cx="11.5" cy="11.5" r="11.5" fill="#7E7E7E"/>
<path d="M16.6873 12H15.4368C15.2719 12 15.125 12.1316 15.125 12.3012C15.125 15 12.9942 16.2857 10.75 16.2857V12.0209L14.2553 11.2197C14.3247 11.2038 14.3868 11.1641 14.4313 11.1071C14.4758 11.05 14.5 10.9791 14.5 10.9059V9.80837C14.5 9.60273 14.3149 9.44997 14.1197 9.4946L10.75 10.2648V9.44946L14.2553 8.64825C14.3247 8.63239 14.3868 8.59265 14.4313 8.53561C14.4758 8.47856 14.5 8.40761 14.5 8.33448V7.23694C14.5 7.0313 14.3149 6.87854 14.1197 6.92317L10.75 7.69337V6.32143C10.75 6.14392 10.6101 6 10.4375 6H8.97917C8.80659 6 8.66667 6.14392 8.66667 6.32143V8.16956L7.24471 8.49458C7.17531 8.51044 7.11323 8.55018 7.06874 8.60722C7.02425 8.66427 7 8.73522 7 8.80835V9.90592C7 10.1116 7.18513 10.2643 7.38029 10.2197L8.66667 9.92566V10.741L7.24471 11.066C7.17531 11.0819 7.11323 11.1216 7.06874 11.1787C7.02425 11.2357 7 11.3066 7 11.3798V12.4773C7 12.683 7.18513 12.8357 7.38029 12.7911L8.66667 12.4971V17.6786C8.66667 17.8561 8.80659 18 8.97917 18H11.0516C14.5436 18 16.8656 15.9152 16.9998 12.3324C17.0066 12.1507 16.8641 12 16.6873 12Z" fill="#212229"/>
</svg>
